<svg xmlns="http://www.w3.org/2000/svg" xml:space="preserve" viewBox="0 0 1080 1080"><path fill="#2296F3" d="M757 883.868c-164.819 0-329.138-.185-493.456.094-61.212.104-114.217-20.444-159.455-61.157C71.447 793.43 48.8 757.456 37.012 715.07c-3.677-13.22-6.458-26.848-7.955-40.475-1.628-14.811-2.613-29.942-1.467-44.746 1.496-19.337 5.526-38.459 11.99-56.901 13.102-37.377 33.754-69.89 62.859-96.862 25.471-23.604 54.602-41.033 87.863-51.352 8.823-2.738 8.387-2.8 9.73-12.34 2.862-20.338 9.857-39.293 20.735-56.733 21.44-34.377 52.022-56.59 91.076-66.698 33.19-8.589 65.731-5.428 97.093 8.37 3.914 1.723 5.528.725 7.656-2.227 16.227-22.51 36.005-41.414 59.1-56.72 25.296-16.768 52.73-28.6 82.625-34.516 17.989-3.56 36.106-6.524 54.446-5.493 48.531 2.727 93.17 16.944 132.549 46.231 32.003 23.802 56.578 53.601 73.5 89.714 10.23 21.828 16.897 44.69 19.985 68.604 1.455 11.274 1.555 10.84 13.033 12.325 18.68 2.414 36.848 7.22 54.343 14.195 30.347 12.1 57.24 29.666 80.225 52.877 28.86 29.144 49.076 63.553 60.09 103.088 8.3 29.797 10.51 60.137 6.826 90.962-6.915 57.863-32.14 106.372-74.5 145.959-27.025 25.256-58.672 42.678-94.262 53.007-19.65 5.704-39.645 8.441-60.055 8.474-22.332.037-44.665.038-67.497.055m-354.516-101.23c7.011 2.963 13.397 1.412 19.256-2.906 8.836-6.512 17.59-13.136 26.35-19.75 17.386-13.129 34.752-26.284 52.766-39.15 4.029 3.222 8.089 6.407 12.081 9.674 33.257 27.219 66.467 54.495 99.77 81.657 10.233 8.346 24.765 3.564 28.259-9.09.354-1.283.655-2.58.96-3.877a7432521.45 7432521.45 0 0 0 77.887-331.851c5.477-23.34 11.005-46.668 16.371-70.033 2.317-10.088-.096-16.73-7.108-21.035-5.302-3.255-10.727-2.71-16.342-.856-31.288 10.332-62.61 20.555-93.9 30.881a1214766.314 1214766.314 0 0 0-371.836 122.78c-5.206 1.72-10.53 3.29-15.43 5.684-8.768 4.281-12.106 14.773-6.858 22.723 2.322 3.518 6.286 6.595 10.19 8.328 41.244 18.301 82.626 36.29 124.094 55.128 3.343 15.233 6.718 30.458 10.023 45.699 7.315 33.733 14.572 67.478 21.912 101.205 1.401 6.441 4.31 11.858 11.555 14.788z"/><path fill="#EBF0FB" d="M358.87 620.183c-41.344-18.075-82.726-36.065-123.97-54.366-3.904-1.733-7.868-4.81-10.19-8.328-5.248-7.95-1.91-18.442 6.858-22.723 4.9-2.394 10.224-3.964 15.43-5.684 123.938-40.947 247.884-81.873 371.836-122.78 31.29-10.326 62.612-20.55 93.9-30.881 5.615-1.855 11.04-2.399 16.342.856 7.012 4.304 9.425 10.947 7.108 21.035-5.366 23.365-10.894 46.693-16.371 70.033a7432521.45 7432521.45 0 0 1-77.888 331.851c-.304 1.296-.605 2.594-.96 3.877-3.493 12.654-18.025 17.436-28.258 9.09-33.303-27.162-66.513-54.438-99.77-81.657-3.992-3.267-8.052-6.452-12.51-10.113-.73-.83-.966-1.3-1.338-1.604-12.436-10.167-24.855-20.354-37.342-30.458-8.488-6.868-17.073-13.616-25.648-20.776 1.112-2.09 1.997-4.083 3.44-5.514 26.466-26.264 53.059-52.401 79.502-78.689 30.943-30.76 61.749-61.66 92.66-92.452 5.416-5.394 11.044-10.577 16.602-15.827 3.24-3.06 4.202-7.378 1.901-10.174-2.714-3.299-6.099-3.752-9.806-1.59-.862.503-1.744.97-2.598 1.485-21.9 13.215-43.779 26.466-65.7 39.645a87763.902 87763.902 0 0 1-112.8 67.707c-26.788 16.05-53.618 32.027-80.43 48.037z"/><path fill="#BDC3D1" d="M358.932 620.564c26.75-16.39 53.58-32.369 80.368-48.418a87763.902 87763.902 0 0 0 112.8-67.707c21.921-13.18 43.8-26.43 65.7-39.645.854-.515 1.736-.982 2.598-1.484 3.707-2.163 7.092-1.71 9.806 1.589 2.301 2.796 1.338 7.114-1.901 10.174-5.558 5.25-11.186 10.433-16.601 15.827-30.912 30.793-61.718 61.691-92.661 92.452-26.443 26.288-53.036 52.425-79.503 78.69-1.442 1.43-2.327 3.423-3.815 5.6-1.705 4.247-3.283 7.987-4.396 11.86-9.828 34.173-19.572 68.37-29.341 102.56-6.747-2.355-9.656-7.772-11.057-14.213-7.34-33.727-14.597-67.472-21.912-101.205-3.305-15.24-6.68-30.466-10.085-46.08z"/><path fill="#AFB4C8" d="M402.235 782.35c9.52-34.478 19.264-68.675 29.092-102.848 1.113-3.873 2.69-7.613 4.43-11.502 8.917 6.715 17.502 13.463 25.99 20.33 12.487 10.105 24.906 20.292 37.342 30.46.372.303.609.773 1.018 1.465-17.265 13.443-34.631 26.598-52.017 39.727-8.76 6.614-17.514 13.238-26.35 19.75-5.859 4.318-12.245 5.869-19.505 2.617z"/></svg>