<svg version="1.1" id="Layer_1" xmlns="http://www.w3.org/2000/svg" xmlns:xlink="http://www.w3.org/1999/xlink" x="0px" y="0px"
	 width="100%" viewBox="0 0 1080 1080" enable-background="new 0 0 1080 1080" xml:space="preserve">
<path fill="#414141" opacity="1.000000" stroke="none" 
	d="
M397.999878,841.562744 
	C338.670319,841.562683 279.840759,841.523376 221.011261,841.583496 
	C199.476303,841.605469 178.545624,838.496216 158.395828,830.624817 
	C130.419968,819.696106 107.194389,802.409485 88.651993,778.821411 
	C69.748131,754.773621 57.870541,727.493408 55.437088,697.107300 
	C53.046646,667.258301 51.824017,637.124695 60.079918,607.724854 
	C69.649086,573.648193 88.209785,545.418762 116.016403,523.388977 
	C146.614319,499.147766 181.721161,488.204926 220.472885,488.082031 
	C231.805374,488.046082 243.140778,487.936646 254.469116,488.156372 
	C258.126434,488.227295 259.599152,487.236084 260.308289,483.436340 
	C264.036865,463.458038 270.500824,444.521057 282.061951,427.515076 
	C298.121735,403.891663 319.911102,388.105499 346.789001,378.894745 
	C379.869232,367.558502 413.372437,366.473694 447.228882,374.547485 
	C451.219299,375.499054 452.760712,374.437134 454.424347,371.040619 
	C475.882294,327.231689 508.127411,293.492706 550.506042,269.556976 
	C576.178955,255.056793 603.952393,246.522278 633.121643,242.417496 
	C682.610107,235.453262 729.659546,243.866318 773.391418,267.406311 
	C839.338562,302.904327 879.958557,357.886230 894.896362,431.505035 
	C898.730042,450.399078 899.645386,469.497070 898.228882,488.689667 
	C897.998108,491.817047 899.086548,492.676178 901.790527,493.309113 
	C917.775269,497.050629 933.126953,502.552124 947.224182,511.063385 
	C991.681702,537.904663 1018.657349,576.756958 1025.908081,628.367615 
	C1029.651978,655.017639 1029.597778,681.885620 1025.034912,708.531250 
	C1020.198364,736.774719 1008.010010,761.713989 989.581543,783.514709 
	C969.773254,806.947693 945.226501,823.598450 916.069336,833.365051 
	C898.018005,839.411560 879.422546,841.581604 860.469360,841.578247 
	C706.479553,841.551086 552.489685,841.562927 397.999878,841.562744 
M689.325500,388.878326 
	C634.187378,418.623505 579.047607,448.365662 523.911499,478.114685 
	C465.109680,509.841522 406.308319,541.569153 347.514343,573.310608 
	C337.360901,578.792175 330.708405,587.022034 329.236786,598.612854 
	C327.649109,611.117981 335.627594,623.589478 348.319305,629.073669 
	C380.891693,643.148499 413.483734,657.178406 446.124207,671.094360 
	C449.018280,672.328247 450.059845,673.785828 450.007690,676.962280 
	C449.690369,696.291687 449.544495,715.624512 449.450684,734.956665 
	C449.380707,749.382874 456.691833,760.715332 468.821747,765.314514 
	C481.156067,769.991089 493.738159,766.574585 503.571045,755.804382 
	C515.818054,742.389954 528.169922,729.066406 540.160706,715.425903 
	C543.592590,711.521912 546.508972,710.618530 551.571228,712.339233 
	C585.006958,723.703979 618.564087,734.711975 652.092346,745.803711 
	C673.554932,752.903809 690.663757,742.885071 694.755798,720.761902 
	C713.700745,618.337341 732.618286,515.907654 751.508301,413.472931 
	C752.049805,410.536530 752.453003,407.521729 752.442932,404.545105 
	C752.379700,385.812073 732.812683,370.667694 715.109985,376.443054 
	C706.349854,379.300964 698.329712,384.427338 689.325500,388.878326 
z"/>
<path fill="#FCFCFC" opacity="1.000000" stroke="none" 
	d="
M689.650146,388.702850 
	C698.329712,384.427338 706.349854,379.300964 715.109985,376.443054 
	C732.812683,370.667694 752.379700,385.812073 752.442932,404.545105 
	C752.453003,407.521729 752.049805,410.536530 751.508301,413.472931 
	C732.618286,515.907654 713.700745,618.337341 694.755798,720.761902 
	C690.663757,742.885071 673.554932,752.903809 652.092346,745.803711 
	C618.564087,734.711975 585.006958,723.703979 551.571228,712.339233 
	C546.508972,710.618530 543.592590,711.521912 540.160706,715.425903 
	C528.169922,729.066406 515.818054,742.389954 503.571045,755.804382 
	C493.738159,766.574585 481.156067,769.991089 468.821747,765.314514 
	C456.691833,760.715332 449.380707,749.382874 449.450684,734.956665 
	C449.544495,715.624512 449.690369,696.291687 450.007690,676.962280 
	C450.059845,673.785828 449.018280,672.328247 446.124207,671.094360 
	C413.483734,657.178406 380.891693,643.148499 348.319305,629.073669 
	C335.627594,623.589478 327.649109,611.117981 329.236786,598.612854 
	C330.708405,587.022034 337.360901,578.792175 347.514343,573.310608 
	C406.308319,541.569153 465.109680,509.841522 523.911499,478.114685 
	C579.047607,448.365662 634.187378,418.623505 689.650146,388.702850 
M501.867462,647.367676 
	C495.633331,653.624146 489.258179,659.749878 483.258789,666.223877 
	C481.646240,667.963928 480.355988,670.748047 480.312164,673.079102 
	C479.948700,692.404114 479.905151,711.735229 479.793457,731.064697 
	C479.785492,732.443054 480.004150,733.822754 480.117462,735.201843 
	C480.544556,735.435669 480.971619,735.669434 481.398712,735.903259 
	C482.383209,734.612732 483.275513,733.237854 484.366119,732.044373 
	C498.640961,716.423279 513.059875,700.931702 527.185608,685.177307 
	C533.270386,678.390869 539.884094,676.634644 548.628357,679.586304 
	C584.920044,691.836792 621.330750,703.734985 657.700989,715.752747 
	C659.858643,716.465698 662.044800,717.092590 664.711731,717.911194 
	C682.317993,622.471008 699.807495,527.663452 717.103516,433.904938 
	C645.714966,504.703033 574.040588,575.784668 501.867462,647.367676 
M552.533447,554.033386 
	C591.741821,514.634766 630.950195,475.236145 670.158569,435.837524 
	C669.807190,435.354462 669.455811,434.871399 669.104431,434.388306 
	C566.330933,489.852509 463.557495,545.316711 359.993164,601.207703 
	C362.065094,602.208984 362.941864,602.675781 363.851440,603.066162 
	C395.230713,616.532166 426.641296,629.926025 457.954559,643.543762 
	C461.368652,645.028442 463.050476,643.791626 465.205383,641.625305 
	C494.115326,612.562134 523.081665,583.554993 552.533447,554.033386 
z"/>
<path fill="#414141" opacity="1.000000" stroke="none" 
	d="
M502.116821,647.117004 
	C574.040588,575.784668 645.714966,504.703033 717.103516,433.904938 
	C699.807495,527.663452 682.317993,622.471008 664.711731,717.911194 
	C662.044800,717.092590 659.858643,716.465698 657.700989,715.752747 
	C621.330750,703.734985 584.920044,691.836792 548.628357,679.586304 
	C539.884094,676.634644 533.270386,678.390869 527.185608,685.177307 
	C513.059875,700.931702 498.640961,716.423279 484.366119,732.044373 
	C483.275513,733.237854 482.383209,734.612732 481.398712,735.903259 
	C480.971619,735.669434 480.544556,735.435669 480.117462,735.201843 
	C480.004150,733.822754 479.785492,732.443054 479.793457,731.064697 
	C479.905151,711.735229 479.948700,692.404114 480.312164,673.079102 
	C480.355988,670.748047 481.646240,667.963928 483.258789,666.223877 
	C489.258179,659.749878 495.633331,653.624146 502.116821,647.117004 
z"/>
<path fill="#424242" opacity="1.000000" stroke="none" 
	d="
M552.283691,554.283691 
	C523.081665,583.554993 494.115326,612.562134 465.205383,641.625305 
	C463.050476,643.791626 461.368652,645.028442 457.954559,643.543762 
	C426.641296,629.926025 395.230713,616.532166 363.851440,603.066162 
	C362.941864,602.675781 362.065094,602.208984 359.993164,601.207703 
	C463.557495,545.316711 566.330933,489.852509 669.104431,434.388306 
	C669.455811,434.871399 669.807190,435.354462 670.158569,435.837524 
	C630.950195,475.236145 591.741821,514.634766 552.283691,554.283691 
z"/>
</svg>